<svg aria-hidden="true" style="width:0;height:0;position:absolute;overflow:hidden" xmlns="http://www.w3.org/2000/svg"><defs><symbol id="icon-book" viewBox="0 0 32 32"><path fill="none" stroke="#f4f4f4" style="stroke:var(--color1,#f4f4f4)" stroke-linejoin="round" stroke-linecap="round" stroke-width="1.778" d="M2.667 4h8A5.332 5.332 0 0 1 16 9.333V28a4.003 4.003 0 0 0-4-4H2.667V4z"/><path fill="none" stroke="#f4f4f4" style="stroke:var(--color1,#f4f4f4)" stroke-linejoin="round" stroke-linecap="round" stroke-width="1.778" d="M29.333 4h-8A5.334 5.334 0 0 0 16 9.333V28a4.003 4.003 0 0 1 4-4h9.333V4z"/></symbol><symbol id="icon-home" viewBox="0 0 32 32"><path fill="none" stroke="#f4f4f4" style="stroke:var(--color1,#f4f4f4)" stroke-linejoin="round" stroke-linecap="round" stroke-width="1.778" d="m4 12 12-9.333L28 12v14.667a2.668 2.668 0 0 1-2.667 2.667H6.666a2.668 2.668 0 0 1-2.667-2.667V12z"/><path fill="none" stroke="#f4f4f4" style="stroke:var(--color1,#f4f4f4)" stroke-linejoin="round" stroke-linecap="round" stroke-width="1.778" d="M12 29.333V16h8v13.333"/></symbol><symbol id="icon-heartBiggest" viewBox="0 0 36 32"><path fill="none" stroke="#f4f4f4" style="stroke:var(--color1,#f4f4f4)" stroke-linejoin="round" stroke-linecap="round" stroke-width="2" d="M31.261 4.915a8.244 8.244 0 0 0-5.835-2.417 8.264 8.264 0 0 0-5.835 2.417l-1.59 1.59-1.59-1.59a8.25 8.25 0 0 0-11.67 0 8.25 8.25 0 0 0 0 11.67l13.26 13.26 13.26-13.26a8.26 8.26 0 0 0 2.417-5.835 8.245 8.245 0 0 0-2.417-5.835v0z"/></symbol><symbol id="icon-moon" viewBox="0 0 32 32"><path d="M24.821 23.268q-.964.161-1.964.161-3.25 0-6.018-1.607t-4.375-4.375-1.607-6.018q0-3.429 1.857-6.375-3.589 1.071-5.866 4.089T4.571 16q0 2.321.911 4.438t2.438 3.643 3.643 2.438 4.438.911q2.571 0 4.884-1.098t3.938-3.063zm3.625-1.518q-1.679 3.625-5.063 5.795t-7.384 2.17q-2.786 0-5.321-1.089t-4.375-2.929-2.929-4.375-1.089-5.321q0-2.732 1.027-5.223t2.786-4.313 4.205-2.938 5.179-1.223q.786-.036 1.089.696.321.732-.268 1.286-1.536 1.393-2.348 3.241t-.813 3.902q0 2.643 1.304 4.875t3.536 3.536 4.875 1.304q2.107 0 4.071-.911.732-.321 1.286.232.25.25.313.607t-.08.679z"/></symbol><symbol id="icon-sun" viewBox="0 0 32 32"><path d="M16 9c-3.859 0-7 3.141-7 7s3.141 7 7 7 7-3.141 7-7-3.141-7-7-7zm0 12c-2.762 0-5-2.238-5-5s2.238-5 5-5 5 2.238 5 5-2.238 5-5 5zm0-14a1 1 0 0 0 1-1V4a1 1 0 0 0-2 0v2a1 1 0 0 0 1 1zm0 18a1 1 0 0 0-1 1v2a1 1 0 0 0 2 0v-2a1 1 0 0 0-1-1zm7.777-15.365 1.414-1.414a.999.999 0 1 0-1.414-1.414l-1.414 1.414a.999.999 0 1 0 1.414 1.414zM8.223 22.365l-1.414 1.414a.999.999 0 1 0 1.414 1.414l1.414-1.414a.999.999 0 1 0-1.414-1.414zM7 16a1 1 0 0 0-1-1H4a1 1 0 0 0 0 2h2a1 1 0 0 0 1-1zm21-1h-2a1 1 0 0 0 0 2h2a1 1 0 0 0 0-2zM8.221 9.635a.999.999 0 1 0 1.414-1.414L8.221 6.807a.999.999 0 1 0-1.414 1.414l1.414 1.414zm15.558 12.728a.999.999 0 1 0-1.414 1.414l1.414 1.414a.999.999 0 1 0 1.414-1.414l-1.414-1.414z"/></symbol><symbol id="icon-heartBcg" viewBox="0 0 32 32"><path d="M9.334 4c-3.682 0-6.668 2.954-6.668 6.6 0 2.942 1.168 9.926 12.652 16.986a1.31 1.31 0 0 0 1.37-.003l-.006.003c11.484-7.06 12.652-14.044 12.652-16.986 0-3.646-2.986-6.6-6.668-6.6C18.986 4 16 8 16 8s-2.986-4-6.666-4z"/></symbol><symbol id="icon-heartWithoutBcg" viewBox="0 0 32 32"><path stroke-linejoin="round" stroke-linecap="round" stroke-width="2" d="M9.334 4c-3.682 0-6.668 2.954-6.668 6.6 0 2.942 1.168 9.926 12.652 16.986a1.31 1.31 0 0 0 1.37-.003l-.006.003c11.484-7.06 12.652-14.044 12.652-16.986 0-3.646-2.986-6.6-6.668-6.6C18.986 4 16 8 16 8s-2.986-4-6.666-4z"/></symbol><symbol id="icon-arrowToUp" viewBox="0 0 32 32"><path d="M3.76 25.143 0 21.664 16 6.857l16 14.807-3.76 3.479L16 13.84 3.76 25.143z"/></symbol><symbol id="icon-arrowToDown" viewBox="0 0 32 32"><path d="M3.76 9.143 0 12.622l16 14.807 16-14.807-3.76-3.479L16 20.446 3.76 9.143z"/></symbol><symbol id="icon-arrowToRight" viewBox="0 0 18 32"><path fill="none" stroke="#f4f4f4" style="stroke:var(--color1,#f4f4f4)" stroke-linejoin="round" stroke-linecap="round" stroke-width="4.571" d="M2.286 29.714 16 16 2.286 2.286"/></symbol><symbol id="icon-calendar" viewBox="0 0 32 32"><path d="M22.667 4H28c.736 0 1.333.597 1.333 1.333v21.334c0 .736-.597 1.333-1.333 1.333H4a1.333 1.333 0 0 1-1.333-1.333V5.333C2.667 4.597 3.264 4 4 4h5.333V1.333H12V4h8V1.333h2.667V4zm4 10.667H5.333v10.666h21.334V14.667zm-6.667-8h-8v2.666H9.333V6.667h-4V12h21.334V6.667h-4v2.666H20V6.667zM8 17.333h2.667V20H8v-2.667zm6.667 0h2.666V20h-2.666v-2.667zm6.666 0H24V20h-2.667v-2.667z"/></symbol><symbol id="icon-search" viewBox="0 0 32 32"><path d="M13.333 23.6c2.368 0 4.666-.752 6.53-2.138l5.862 5.568 1.885-1.792-5.862-5.568a9.7 9.7 0 0 0 2.253-6.201v-.002c0-5.587-4.784-10.134-10.667-10.134-5.882 0-10.666 4.547-10.666 10.134S7.452 23.6 13.334 23.6zm0-17.733c4.413 0 8 3.408 8 7.6s-3.587 7.6-8 7.6c-4.411 0-8-3.408-8-7.6s3.589-7.6 8-7.6z"/></symbol><symbol id="icon-mobile-menu" viewBox="0 0 32 32"><path d="M3.492 6.741c-.321.1-.495.235-.655.507-.129.22-.144.297-.144.752 0 .457.015.531.148.759.1.166.234.3.395.397l.005.003.252.148h25.021l.26-.16c.329-.204.507-.529.544-1.001.037-.459-.088-.885-.333-1.129-.376-.376.605-.349-13.008-.345-9.711.003-12.316.017-12.485.071zm0 8c-.321.1-.495.235-.655.507-.129.22-.144.297-.144.752 0 .457.015.531.148.759.1.166.234.3.395.397l.005.003.252.148h25.021l.26-.16c.329-.204.507-.529.544-1.001.037-.459-.088-.885-.333-1.129-.376-.376.605-.349-13.008-.345-9.711.003-12.316.017-12.485.071zm0 8c-.321.1-.495.235-.655.507-.129.22-.144.297-.144.752 0 .457.015.531.148.759.1.166.234.3.395.397l.005.003.252.148h25.021l.26-.16c.329-.204.507-.529.544-1.001.037-.459-.088-.885-.333-1.129-.376-.376.605-.349-13.008-.345-9.711.003-12.316.017-12.485.071z"/></symbol><symbol id="icon-close" viewBox="0 0 32 32"><path d="M7.501 6.727a2.257 2.257 0 0 0-.772.776l-.006.01a1.15 1.15 0 0 0 .005.99l-.003-.007c.075.149 1.313 1.427 3.745 3.864L14.105 16l-3.635 3.64c-2.432 2.437-3.671 3.715-3.745 3.864-.235.469-.113.977.34 1.431s.961.575 1.431.34c.149-.075 1.427-1.313 3.864-3.745L16 17.895l3.64 3.635c2.437 2.432 3.715 3.671 3.864 3.745.469.235.977.113 1.431-.34s.575-.961.34-1.431c-.075-.149-1.313-1.427-3.745-3.864L17.895 16l3.635-3.64c2.432-2.437 3.671-3.715 3.745-3.864.235-.469.113-.977-.34-1.431s-.961-.575-1.431-.34c-.149.075-1.427 1.313-3.864 3.745L16 14.105l-3.64-3.635C9.923 8.038 8.645 6.799 8.496 6.725a1.173 1.173 0 0 0-1.002.005l.007-.003z"/></symbol><symbol id="icon-frame" viewBox="0 0 32 32"><path d="M22.666 4h5.333a1.335 1.335 0 0 1 1.334 1.334v21.333A1.33 1.33 0 0 1 27.999 28h-24a1.333 1.333 0 0 1-1.334-1.333V5.334A1.335 1.335 0 0 1 3.999 4h5.333V1.333h2.667V4h8V1.333h2.667V4zm4 10.667H5.333v10.667h21.333V14.667zm-6.666-8h-8v2.667H9.333V6.667h-4V12h21.333V6.667h-4v2.667h-2.667V6.667zM8 17.333h2.667V20H8v-2.667zm6.666 0h2.667V20h-2.667v-2.667zm6.667 0H24V20h-2.667v-2.667z"/></symbol><symbol id="icon-vector-up" viewBox="0 0 53 32"><path d="M6.267 32 0 25.911 26.667 0l26.667 25.911L47.067 32l-20.4-19.779L6.267 32z"/></symbol><symbol id="icon-arrowbackward" viewBox="0 0 16 32"><path fill="#4440f6" style="fill:var(--color1,#4440f6)" d="M0 16c0 .596.204 1.107.642 1.55l12.192 12.982c.345.375.784.579 1.301.579 1.034 0 1.865-.886 1.865-2.027 0-.562-.219-1.056-.564-1.448L4.451 16 15.436 4.364c.345-.392.564-.903.564-1.448 0-1.141-.831-2.027-1.865-2.027-.517 0-.956.204-1.301.579L.642 14.433C.203 14.893 0 15.404 0 16z"/></symbol><symbol id="icon-arrowforward" viewBox="0 0 16 32"><path fill="#4440f6" style="fill:var(--color1,#4440f6)" d="M16 16a2.309 2.309 0 0 0-.643-1.567L3.165 1.468c-.36-.375-.784-.579-1.301-.579-1.05 0-1.865.886-1.865 2.027 0 .545.204 1.056.564 1.448L11.533 16 .563 27.636a2.1 2.1 0 0 0-.564 1.448c0 1.142.815 2.027 1.865 2.027.501 0 .94-.204 1.301-.579L15.357 17.55c.439-.443.642-.954.642-1.55z"/></symbol></defs></svg>