<svg aria-hidden="true" style="width:0;height:0;position:absolute;overflow:hidden" xmlns="http://www.w3.org/2000/svg"><defs><symbol id="icon-book" viewBox="0 0 32 32"><path fill="none" stroke="#f4f4f4" style="stroke:var(--color1,#f4f4f4)" stroke-linejoin="round" stroke-linecap="round" stroke-width="1.778" d="M2.667 4h8A5.332 5.332 0 0 1 16 9.333V28a4.003 4.003 0 0 0-4-4H2.667V4z"/><path fill="none" stroke="#f4f4f4" style="stroke:var(--color1,#f4f4f4)" stroke-linejoin="round" stroke-linecap="round" stroke-width="1.778" d="M29.333 4h-8A5.334 5.334 0 0 0 16 9.333V28a4.003 4.003 0 0 1 4-4h9.333V4z"/></symbol><symbol id="icon-home" viewBox="0 0 32 32"><path fill="none" stroke="#f4f4f4" style="stroke:var(--color1,#f4f4f4)" stroke-linejoin="round" stroke-linecap="round" stroke-width="1.778" d="m4 12 12-9.333L28 12v14.667a2.668 2.668 0 0 1-2.667 2.667H6.666a2.668 2.668 0 0 1-2.667-2.667V12z"/><path fill="none" stroke="#f4f4f4" style="stroke:var(--color1,#f4f4f4)" stroke-linejoin="round" stroke-linecap="round" stroke-width="1.778" d="M12 29.333V16h8v13.333"/></symbol><symbol id="icon-heartBiggest" viewBox="0 0 36 32"><path fill="none" stroke="#f4f4f4" style="stroke:var(--color1,#f4f4f4)" stroke-linejoin="round" stroke-linecap="round" stroke-width="2" d="M31.261 4.915a8.244 8.244 0 0 0-5.835-2.417 8.264 8.264 0 0 0-5.835 2.417l-1.59 1.59-1.59-1.59a8.25 8.25 0 0 0-11.67 0 8.25 8.25 0 0 0 0 11.67l13.26 13.26 13.26-13.26a8.26 8.26 0 0 0 2.417-5.835 8.245 8.245 0 0 0-2.417-5.835v0z"/></symbol><symbol id="icon-moon" viewBox="0 0 32 32"><path d="M24.821 23.268q-.964.161-1.964.161-3.25 0-6.018-1.607t-4.375-4.375-1.607-6.018q0-3.429 1.857-6.375-3.589 1.071-5.866 4.089T4.571 16q0 2.321.911 4.438t2.438 3.643 3.643 2.438 4.438.911q2.571 0 4.884-1.098t3.938-3.063zm3.625-1.518q-1.679 3.625-5.063 5.795t-7.384 2.17q-2.786 0-5.321-1.089t-4.375-2.929-2.929-4.375-1.089-5.321q0-2.732 1.027-5.223t2.786-4.313 4.205-2.938 5.179-1.223q.786-.036 1.089.696.321.732-.268 1.286-1.536 1.393-2.348 3.241t-.813 3.902q0 2.643 1.304 4.875t3.536 3.536 4.875 1.304q2.107 0 4.071-.911.732-.321 1.286.232.25.25.313.607t-.08.679z"/></symbol><symbol id="icon-sun" viewBox="0 0 32 32"><path d="M16 9c-3.859 0-7 3.141-7 7s3.141 7 7 7 7-3.141 7-7-3.141-7-7-7zm0 12c-2.762 0-5-2.238-5-5s2.238-5 5-5 5 2.238 5 5-2.238 5-5 5zm0-14a1 1 0 0 0 1-1V4a1 1 0 0 0-2 0v2a1 1 0 0 0 1 1zm0 18a1 1 0 0 0-1 1v2a1 1 0 0 0 2 0v-2a1 1 0 0 0-1-1zm7.777-15.365 1.414-1.414a.999.999 0 1 0-1.414-1.414l-1.414 1.414a.999.999 0 1 0 1.414 1.414zM8.223 22.365l-1.414 1.414a.999.999 0 1 0 1.414 1.414l1.414-1.414a.999.999 0 1 0-1.414-1.414zM7 16a1 1 0 0 0-1-1H4a1 1 0 0 0 0 2h2a1 1 0 0 0 1-1zm21-1h-2a1 1 0 0 0 0 2h2a1 1 0 0 0 0-2zM8.221 9.635a.999.999 0 1 0 1.414-1.414L8.221 6.807a.999.999 0 1 0-1.414 1.414l1.414 1.414zm15.558 12.728a.999.999 0 1 0-1.414 1.414l1.414 1.414a.999.999 0 1 0 1.414-1.414l-1.414-1.414z"/></symbol><symbol id="icon-heartBcg" viewBox="0 0 32 32"><path d="M9.334 4c-3.682 0-6.668 2.954-6.668 6.6 0 2.942 1.168 9.926 12.652 16.986a1.31 1.31 0 0 0 1.37-.003l-.006.003c11.484-7.06 12.652-14.044 12.652-16.986 0-3.646-2.986-6.6-6.668-6.6C18.986 4 16 8 16 8s-2.986-4-6.666-4z"/></symbol><symbol id="icon-heartWithoutBcg" viewBox="0 0 32 32"><path stroke-linejoin="round" stroke-linecap="round" stroke-width="2" d="M9.334 4c-3.682 0-6.668 2.954-6.668 6.6 0 2.942 1.168 9.926 12.652 16.986a1.31 1.31 0 0 0 1.37-.003l-.006.003c11.484-7.06 12.652-14.044 12.652-16.986 0-3.646-2.986-6.6-6.668-6.6C18.986 4 16 8 16 8s-2.986-4-6.666-4z"/></symbol><symbol id="icon-arrowToUp" viewBox="0 0 32 32"><path d="M3.76 25.143 0 21.664 16 6.857l16 14.807-3.76 3.479L16 13.84 3.76 25.143z"/></symbol><symbol id="icon-arrowToDown" viewBox="0 0 32 32"><path d="M3.76 9.143 0 12.622l16 14.807 16-14.807-3.76-3.479L16 20.446 3.76 9.143z"/></symbol><symbol id="icon-arrowToRight" viewBox="0 0 18 32"><path fill="none" stroke="#f4f4f4" style="stroke:var(--color1,#f4f4f4)" stroke-linejoin="round" stroke-linecap="round" stroke-width="4.571" d="M2.286 29.714 16 16 2.286 2.286"/></symbol><symbol id="icon-calendar" viewBox="0 0 32 32"><path d="M22.667 4H28c.736 0 1.333.597 1.333 1.333v21.334c0 .736-.597 1.333-1.333 1.333H4a1.333 1.333 0 0 1-1.333-1.333V5.333C2.667 4.597 3.264 4 4 4h5.333V1.333H12V4h8V1.333h2.667V4zm4 10.667H5.333v10.666h21.334V14.667zm-6.667-8h-8v2.666H9.333V6.667h-4V12h21.334V6.667h-4v2.666H20V6.667zM8 17.333h2.667V20H8v-2.667zm6.667 0h2.666V20h-2.666v-2.667zm6.666 0H24V20h-2.667v-2.667z"/></symbol><symbol id="icon-search" viewBox="0 0 32 32"><path d="M13.333 23.6c2.368 0 4.666-.752 6.53-2.138l5.862 5.568 1.885-1.792-5.862-5.568a9.7 9.7 0 0 0 2.253-6.201v-.002c0-5.587-4.784-10.134-10.667-10.134-5.882 0-10.666 4.547-10.666 10.134S7.452 23.6 13.334 23.6zm0-17.733c4.413 0 8 3.408 8 7.6s-3.587 7.6-8 7.6c-4.411 0-8-3.408-8-7.6s3.589-7.6 8-7.6z"/></symbol><symbol id="icon-mobile-menu" viewBox="0 0 32 32"><path d="M3.492 6.741c-.321.1-.495.235-.655.507-.129.22-.144.297-.144.752 0 .457.015.531.148.759.1.166.234.3.395.397l.005.003.252.148h25.021l.26-.16c.329-.204.507-.529.544-1.001.037-.459-.088-.885-.333-1.129-.376-.376.605-.349-13.008-.345-9.711.003-12.316.017-12.485.071zm0 8c-.321.1-.495.235-.655.507-.129.22-.144.297-.144.752 0 .457.015.531.148.759.1.166.234.3.395.397l.005.003.252.148h25.021l.26-.16c.329-.204.507-.529.544-1.001.037-.459-.088-.885-.333-1.129-.376-.376.605-.349-13.008-.345-9.711.003-12.316.017-12.485.071zm0 8c-.321.1-.495.235-.655.507-.129.22-.144.297-.144.752 0 .457.015.531.148.759.1.166.234.3.395.397l.005.003.252.148h25.021l.26-.16c.329-.204.507-.529.544-1.001.037-.459-.088-.885-.333-1.129-.376-.376.605-.349-13.008-.345-9.711.003-12.316.017-12.485.071z"/></symbol><symbol id="icon-close" viewBox="0 0 32 32"><path d="M7.501 6.727a2.257 2.257 0 0 0-.772.776l-.006.01a1.15 1.15 0 0 0 .005.99l-.003-.007c.075.149 1.313 1.427 3.745 3.864L14.105 16l-3.635 3.64c-2.432 2.437-3.671 3.715-3.745 3.864-.235.469-.113.977.34 1.431s.961.575 1.431.34c.149-.075 1.427-1.313 3.864-3.745L16 17.895l3.64 3.635c2.437 2.432 3.715 3.671 3.864 3.745.469.235.977.113 1.431-.34s.575-.961.34-1.431c-.075-.149-1.313-1.427-3.745-3.864L17.895 16l3.635-3.64c2.432-2.437 3.671-3.715 3.745-3.864.235-.469.113-.977-.34-1.431s-.961-.575-1.431-.34c-.149.075-1.427 1.313-3.864 3.745L16 14.105l-3.64-3.635C9.923 8.038 8.645 6.799 8.496 6.725a1.173 1.173 0 0 0-1.002.005l.007-.003z"/></symbol><symbol id="icon-frame" viewBox="0 0 32 32"><path d="M22.666 4h5.333a1.335 1.335 0 0 1 1.334 1.334v21.333A1.33 1.33 0 0 1 27.999 28h-24a1.333 1.333 0 0 1-1.334-1.333V5.334A1.335 1.335 0 0 1 3.999 4h5.333V1.333h2.667V4h8V1.333h2.667V4zm4 10.667H5.333v10.667h21.333V14.667zm-6.666-8h-8v2.667H9.333V6.667h-4V12h21.333V6.667h-4v2.667h-2.667V6.667zM8 17.333h2.667V20H8v-2.667zm6.666 0h2.667V20h-2.667v-2.667zm6.667 0H24V20h-2.667v-2.667z"/></symbol><symbol id="icon-vector-up" viewBox="0 0 53 32"><path d="M6.267 32 0 25.911 26.667 0l26.667 25.911L47.067 32l-20.4-19.779L6.267 32z"/></symbol><symbol id="icon-arrowbackward" viewBox="0 0 16 32"><path fill="#4440f6" style="fill:var(--color1,#4440f6)" d="M0 16c0 .596.204 1.107.642 1.55l12.192 12.982c.345.375.784.579 1.301.579 1.034 0 1.865-.886 1.865-2.027 0-.562-.219-1.056-.564-1.448L4.451 16 15.436 4.364c.345-.392.564-.903.564-1.448 0-1.141-.831-2.027-1.865-2.027-.517 0-.956.204-1.301.579L.642 14.433C.203 14.893 0 15.404 0 16z"/></symbol><symbol id="icon-arrowforward" viewBox="0 0 16 32"><path fill="#4440f6" style="fill:var(--color1,#4440f6)" d="M16 16a2.309 2.309 0 0 0-.643-1.567L3.165 1.468c-.36-.375-.784-.579-1.301-.579-1.05 0-1.865.886-1.865 2.027 0 .545.204 1.056.564 1.448L11.533 16 .563 27.636a2.1 2.1 0 0 0-.564 1.448c0 1.142.815 2.027 1.865 2.027.501 0 .94-.204 1.301-.579L15.357 17.55c.439-.443.642-.954.642-1.55z"/></symbol><symbol id="icon-html5" viewBox="0 0 32 32"><path d="M1.066 1.067V0a1.071 1.071 0 0 0-.785.345 1.07 1.07 0 0 0-.278.812l1.062-.09zm29.867 0 1.062.09A1.072 1.072 0 0 0 31.361.09a1.071 1.071 0 0 0-.429-.09v1.067zm-2.133 25.6.337 1.011a1.067 1.067 0 0 0 .725-.924l-1.062-.087zm-12.801 4.266-.337 1.011c.219.073.455.073.674 0l-.337-1.011zM3.2 26.667l-1.062.087a1.065 1.065 0 0 0 .725.924l.337-1.011zm6.4-19.2V6.4H8.533v1.067H9.6zm0 6.4H8.533v1.067H9.6v-1.067zm12.8 0h1.067V12.8H22.4v1.067zm0 6.4.337 1.011.73-.243v-.768H22.4zM15.999 22.4l-.337 1.011.337.113.337-.113-.337-1.011zM9.6 20.267H8.533v.768l.73.243.337-1.011zM1.066 2.133h29.867V0H1.066v2.133zM29.87.977l-2.133 25.6 2.125.177 2.133-25.598L29.87.977zm-1.408 24.679-12.8 4.267.674 2.022 12.8-4.267-.674-2.022zm-12.125 4.266-12.8-4.267-.674 2.022 12.8 4.267.674-2.022zM4.262 26.579 2.129.979l-2.125.177 2.133 25.598 2.125-.175zM23.466 6.4H9.599v2.133h13.867V6.4zM8.533 7.467v6.4h2.133v-6.4H8.533zM9.6 14.933h12.8V12.8H9.6v2.133zm11.733-1.066v6.4h2.133v-6.4h-2.133zm.729 5.389-6.4 2.133.674 2.022 6.4-2.133-.674-2.022zm-5.725 2.133-6.4-2.133-.674 2.022 6.4 2.133.674-2.022zm-5.671-1.122v-3.2H8.533v3.2h2.133z"/></symbol><symbol id="icon-sass" viewBox="0 0 32 32"><path d="M15.092 22.146c-.03.054-.015.03 0 0zm12.456-4.35c-1.006 0-1.998.23-2.9.675-.295-.595-.6-1.115-.65-1.505-.06-.455-.125-.725-.055-1.265s.385-1.305.38-1.36-.07-.33-.715-.335c-.645-.005-1.2.125-1.265.295a6.09 6.09 0 0 0-.265.955c-.115.585-1.289 2.675-1.954 3.765-.22-.425-.405-.8-.445-1.1-.06-.455-.125-.725-.055-1.265s.385-1.305.38-1.36-.07-.33-.714-.335c-.644-.005-1.2.125-1.265.295s-.135.57-.265.955-1.695 3.865-2.104 4.77c-.21.46-.39.83-.52 1.08-.02.04-.035.065-.045.085.015-.025.025-.05.025-.04-.11.215-.175.335-.175.335v.005c-.085.16-.18.305-.225.305-.03 0-.095-.42.015-.995.235-1.21.79-3.09.785-3.155-.005-.035.105-.36-.365-.535-.455-.165-.62.11-.66.11s-.07.1-.07.1.505-2.12-.97-2.12c-.92 0-2.2 1.01-2.829 1.925-.395.215-1.25.68-2.15 1.175l-1.035.57c-.025-.025-.045-.05-.07-.075-1.79-1.91-5.094-3.26-4.954-5.825.05-.935.375-3.39 6.354-6.37 4.9-2.44 8.817-1.77 9.492-.28.97 2.125-2.095 6.08-7.183 6.65-1.94.215-2.959-.535-3.214-.815-.265-.295-.305-.31-.405-.255-.165.09-.06.35 0 .505.15.395.775 1.095 1.84 1.445.935.305 3.209.475 5.958-.59 3.089-1.19 5.494-4.505 4.788-7.28-.718-2.82-5.394-3.745-9.815-2.175-2.635.935-5.484 2.405-7.533 4.32C.26 11.361-.129 13.346.031 14.176c.57 2.945 4.629 4.865 6.253 6.285l-.225.125c-.815.405-3.909 2.025-4.684 3.735-.875 1.94.145 3.33.814 3.52 2.09.58 4.229-.465 5.379-2.18s1.01-3.955.48-4.975c-.005-.015-.015-.025-.02-.04.6-.355 1.205-.702 1.815-1.04-.2.54-.345 1.19-.42 2.13-.09 1.1.365 2.525.955 3.085.26.245.574.25.77.25.69 0 1-.57 1.345-1.25.425-.83.8-1.795.8-1.795s-.47 2.61.815 2.61c.47 0 .94-.605 1.15-.915v.005s.01-.02.035-.06c.05-.075.075-.12.075-.12v-.015c.19-.325.605-1.07 1.23-2.3.81-1.59 1.584-3.575 1.584-3.575.075.436.179.867.31 1.29.14.475.435.995.67 1.5-.19.26-.305.41-.305.41 0 .004.002.007.005.01-.15.2-.32.415-.495.625-.639.76-1.4 1.63-1.5 1.88-.12.295-.09.515.14.685.17.13.47.15.785.125.575-.04.98-.18 1.175-.27.36-.129.7-.307 1.01-.53.625-.46 1.005-1.12.97-1.99-.02-.48-.175-.96-.365-1.41.055-.08.115-.165.17-.25a26.636 26.636 0 0 0 1.755-3.031c.075.436.178.867.31 1.29.12.405.355.85.57 1.285-.93.755-1.505 1.63-1.704 2.205-.37 1.065-.08 1.545.465 1.655.245.05.595-.065.855-.175.386-.129.75-.316 1.079-.555.625-.46 1.23-1.105 1.189-1.98-.015-.395-.125-.79-.27-1.17.785-.33 1.805-.51 3.105-.36 2.784.325 3.329 2.065 3.224 2.79s-.69 1.13-.885 1.25c-.195.12-.255.165-.24.255.025.13.115.125.28.095.23-.04 1.46-.59 1.515-1.935.08-1.7-1.555-3.57-4.45-3.555l-.002.001zM6.089 25.031c-.92 1.005-2.209 1.385-2.764 1.065-.595-.346-.36-1.825.774-2.896.69-.65 1.58-1.25 2.17-1.62.135-.08.33-.2.57-.345l.06-.035c.045-.03.095-.055.145-.085.414 1.52.015 2.861-.955 3.916zm6.718-4.57c-.32.785-.994 2.785-1.405 2.68-.35-.09-.565-1.615-.07-3.115.25-.755.78-1.655 1.095-2.005.505-.565 1.06-.745 1.19-.52.175.295-.61 2.47-.81 2.96zm5.55 2.65c-.135.07-.26.115-.32.08-.045-.025.055-.12.055-.12s.695-.745.97-1.085c.16-.2.345-.435.545-.695 0 .025.005.05.005.08-.006.895-.865 1.5-1.255 1.74zm4.28-.975c-.1-.07-.085-.305.25-1.035.13-.285.43-.765.95-1.225.059.174.091.356.095.54-.005 1.125-.81 1.545-1.295 1.72z"/></symbol><symbol id="icon-js" viewBox="0 0 32 32"><path d="M5 5v22h22V5H5zm2 2h18v18H7V7zm13.244 8c-1.425 0-2.346.912-2.346 2.12 0 1.31.77 1.937 1.928 2.43l.4.173c.733.323 1.169.511 1.169 1.062 0 .465-.427.799-1.092.799-.788 0-1.236-.418-1.578-.979l-1.31.75c.464.931 1.433 1.645 2.925 1.645 1.52 0 2.66-.788 2.66-2.232 0-1.35-.77-1.949-2.139-2.528l-.398-.172c-.693-.304-.988-.503-.988-.978 0-.39.294-.694.77-.694.465 0 .758.2 1.034.694l1.256-.807c-.532-.93-1.265-1.283-2.29-1.283h-.001zm-5.85.096v5.463c0 .798-.342 1.005-.865 1.005-.55 0-.788-.379-1.035-.826l-1.31.79c.38.807 1.129 1.472 2.412 1.472C15.02 23 16 22.24 16 20.576v-5.48h-1.606z"/></symbol><symbol id="icon-axios" viewBox="0 0 32 32"><path d="M14.757 3.867V29.73l-2.819 2.271V10.486H6.633l8.124-6.619zM19.911 0v21.023h5.455l-8.267 6.785V1.959L19.911 0z"/></symbol></defs></svg>