<svg width="31" height="31" aria-hidden="true" viewBox="0 0 29 32" style="width:0;height:0;position:absolute;overflow:hidden" xmlns="http://www.w3.org/2000/svg"><path fill="#fff" d="M22.369 10.588a3.067 3.067 0 0 1 1.238-.147c.413.038.797.147 1.153.328a3.16 3.16 0 0 1 1.548 1.803l.006.022 1.938 5.955c.296.868.466 1.867.466 2.906 0 1.555-.382 3.02-1.057 4.307l.024-.051a9.741 9.741 0 0 1-2.207 2.821l-.011.009a9.25 9.25 0 0 1-3.175 1.824l-.066.019c-1.01.35-2.175.552-3.386.552-.369 0-.733-.019-1.091-.055l.045.004a12.287 12.287 0 0 1-4.359-1.312l.068.032-9.7-4.935a3.29 3.29 0 0 1-1.604-1.869l-.007-.023a3.02 3.02 0 0 1-.143-1.305l-.001.013a3.61 3.61 0 0 1 .344-1.21c.185-.38.44-.703.765-.968s.701-.48 1.128-.641a3.132 3.132 0 0 1 2.5.211l-.017-.008 2.194 1.103-1.695-5.209a7.237 7.237 0 0 1-2.044-.569l.046.018a7.134 7.134 0 0 1-1.73-1.077l.011.009a8.061 8.061 0 0 1-1.364-1.481l-.017-.025a6.435 6.435 0 0 1-.903-1.817l-.012-.046a6.92 6.92 0 0 1-.364-2.24c0-.223.01-.445.031-.663l-.002.028a7.584 7.584 0 0 1 .786-2.744l-.02.043a7.095 7.095 0 0 1 1.708-2.198l.009-.008A7.49 7.49 0 0 1 5.885.583l.053-.015A6.928 6.928 0 0 1 8.174.205c.225 0 .447.01.666.031L8.812.234a7.569 7.569 0 0 1 2.745.785l-.043-.02a7.095 7.095 0 0 1 2.198 1.708l.008.009a7.512 7.512 0 0 1 1.425 2.538c.226.674.357 1.45.357 2.257a7.283 7.283 0 0 1-.927 3.566l.019-.037a2.899 2.899 0 0 1 1.148.152l-.02-.006c.362.124.703.31 1.024.559a3.16 3.16 0 0 1 2.909-.971l-.019-.003c.52.092.988.317 1.401.675.381-.41.825-.697 1.331-.863zM3.242 9.13a5.156 5.156 0 0 0 1.25 2.045 5.155 5.155 0 0 0 1.991 1.266l.036.011-1.293-3.965a3.074 3.074 0 0 1-.156-.977c0-.516.124-1.003.345-1.432l-.008.018a3.144 3.144 0 0 1 2.795-1.709 3.13 3.13 0 0 1 2.363 1.073l.003.004c.273.31.476.673.611 1.087l1.291 3.969a5.085 5.085 0 0 0 .884-2.198l.004-.028a5.135 5.135 0 0 0-.205-2.426l.011.036a5.129 5.129 0 0 0-2.564-3l-.029-.013a5.557 5.557 0 0 0-1.903-.554l-.025-.002c-.687-.072-1.372 0-2.054.223s-1.281.561-1.796 1.014a5.285 5.285 0 0 0-1.788 3.491l-.002.021a5.072 5.072 0 0 0 .238 2.049zm21.091 4.11a1.009 1.009 0 0 0-.516-.6l-.006-.003a.988.988 0 0 0-.8-.065l.007-.002c-.352.114-.563.292-.633.531a1.631 1.631 0 0 0-.011.81c.063.299.161.621.296.966.136.345.238.659.309.946.07.285.068.561-.007.825-.074.264-.289.442-.648.537-.381.124-.679.089-.89-.104-.211-.195-.395-.477-.551-.85a5.807 5.807 0 0 1-.351-1.165l-.006-.039a6.08 6.08 0 0 0-.373-1.245l.015.04c-.156-.371-.333-.651-.53-.839-.198-.186-.501-.225-.911-.114-.352.114-.563.292-.633.531-.07.241-.074.511-.011.81s.163.622.298.966c.135.345.237.661.306.946.071.285.07.561-.004.825-.075.264-.291.444-.648.537-.383.125-.68.089-.89-.104-.213-.195-.397-.477-.552-.849a5.837 5.837 0 0 1-.351-1.166l-.006-.038a6.07 6.07 0 0 0-.373-1.244l.015.04c-.156-.373-.333-.653-.529-.839-.199-.188-.504-.225-.913-.115-.352.114-.562.292-.633.531-.07.241-.074.511-.011.81s.163.622.298.967c.135.344.237.659.307.946.07.285.068.559-.006.824s-.291.444-.648.537a.994.994 0 0 1-.798-.07l.005.003a1.009 1.009 0 0 1-.52-.595l-.002-.007-3.232-9.921a1.006 1.006 0 0 0-.516-.598l-.006-.003a.993.993 0 0 0-.8-.066l.007-.002c-.267.086-.48.274-.598.516l-.003.006a.993.993 0 0 0-.066.8l-.002-.007 3.971 12.202a1.748 1.748 0 0 1-.096 1.359l.005-.01a1.43 1.43 0 0 1-.422.532l-.003.002a2.883 2.883 0 0 1-.607.352 1.814 1.814 0 0 1-1.396-.102l.01.005-2.856-1.454a1.1 1.1 0 0 0-.89-.071l.008-.002a1.12 1.12 0 0 0-.665.571l-.003.007a1.187 1.187 0 0 0-.081.912l-.002-.008c.095.296.303.533.571.665l.007.003 9.704 4.953c1.151.584 2.317.938 3.498 1.056 1.183.118 2.389-.018 3.623-.408a7.108 7.108 0 0 0 2.529-1.427l-.008.007a7.37 7.37 0 0 0 2.487-4.863l.002-.029a7.315 7.315 0 0 0-.34-2.945l.015.052-1.937-5.955z"/></svg>