<svg width="16" height="12" viewBox="0 0 16 12" fill="none" xmlns="http://www.w3.org/2000/svg">
<path d="M15.188 0.594133C15.0321 0.598778 14.8842 0.663925 14.7755 0.775774L5.59971 9.95155L1.82393 6.17577C1.76864 6.11819 1.70242 6.07222 1.62914 6.04054C1.55586 6.00887 1.477 5.99214 1.39718 5.99133C1.31736 5.99052 1.23817 6.00564 1.16427 6.03581C1.09036 6.06599 1.02322 6.11061 0.966769 6.16705C0.910322 6.2235 0.865705 6.29064 0.835532 6.36455C0.805358 6.43846 0.790235 6.51764 0.791047 6.59746C0.791859 6.67729 0.80859 6.75615 0.840261 6.82943C0.871932 6.9027 0.917906 6.96892 0.97549 7.02421L5.17549 11.2242C5.28802 11.3367 5.44061 11.3999 5.59971 11.3999C5.75881 11.3999 5.9114 11.3367 6.02393 11.2242L15.6239 1.62421C15.7106 1.53993 15.7698 1.43143 15.7938 1.31292C15.8178 1.19441 15.8054 1.07141 15.7583 0.960063C15.7112 0.848712 15.6315 0.754194 15.5297 0.688897C15.428 0.623599 15.3089 0.590569 15.188 0.594133V0.594133Z" fill="#00DD73"/>
</svg>
