<svg aria-hidden="true" style="position: absolute; width: 0; height: 0; overflow: hidden;" version="1.1" xmlns="http://www.w3.org/2000/svg" xmlns:xlink="http://www.w3.org/1999/xlink">
<defs>
<symbol id="icon-book" viewBox="0 0 32 32">
<path fill="none" stroke="#f4f4f4" style="stroke: var(--color1, #f4f4f4)" stroke-linejoin="round" stroke-linecap="round" stroke-miterlimit="4" stroke-width="1.7778" d="M2.667 4h8c1.415 0 2.771 0.562 3.771 1.562s1.562 2.357 1.562 3.771v18.667c0-1.061-0.421-2.078-1.172-2.828s-1.768-1.172-2.828-1.172h-9.333v-20z"></path>
<path fill="none" stroke="#f4f4f4" style="stroke: var(--color1, #f4f4f4)" stroke-linejoin="round" stroke-linecap="round" stroke-miterlimit="4" stroke-width="1.7778" d="M29.333 4h-8c-1.414 0-2.771 0.562-3.771 1.562s-1.562 2.357-1.562 3.771v18.667c0-1.061 0.421-2.078 1.172-2.828s1.768-1.172 2.828-1.172h9.333v-20z"></path>
</symbol>
 <symbol id="icon-home" viewBox="0 0 32 32">
<path fill="none" stroke="#f4f4f4" style="stroke: var(--color1, #f4f4f4)" stroke-linejoin="round" stroke-linecap="round" stroke-miterlimit="4" stroke-width="1.7778" d="M4 12l12-9.333 12 9.333v14.667c0 0.707-0.281 1.386-0.781 1.886s-1.178 0.781-1.886 0.781h-18.667c-0.707 0-1.386-0.281-1.886-0.781s-0.781-1.178-0.781-1.886v-14.667z"></path>
<path fill="none" stroke="#f4f4f4" style="stroke: var(--color1, #f4f4f4)" stroke-linejoin="round" stroke-linecap="round" stroke-miterlimit="4" stroke-width="1.7778" d="M12 29.333v-13.333h8v13.333"></path>
</symbol>
<symbol id="icon-heartBiggest" viewBox="0 0 36 32">
<path fill="none" stroke="#f4f4f4" style="stroke: var(--color1, #f4f4f4)" stroke-linejoin="round" stroke-linecap="round" stroke-miterlimit="4" stroke-width="2" d="M31.261 4.915c-0.766-0.766-1.676-1.375-2.677-1.789s-2.074-0.628-3.158-0.628c-1.084 0-2.157 0.214-3.158 0.628s-1.911 1.023-2.677 1.789l-1.59 1.59-1.59-1.59c-1.548-1.548-3.646-2.417-5.835-2.417s-4.287 0.869-5.835 2.417c-1.548 1.548-2.417 3.646-2.417 5.835s0.869 4.287 2.417 5.835l13.26 13.26 13.26-13.26c0.766-0.766 1.374-1.676 1.789-2.677s0.628-2.074 0.628-3.158-0.213-2.157-0.628-3.158c-0.415-1.001-1.023-1.911-1.789-2.677v0z"></path>
</symbol>
<symbol id="icon-moon" viewBox="0 0 32 32">
<path d="M24.821 23.268q-0.964 0.161-1.964 0.161-3.25 0-6.018-1.607t-4.375-4.375-1.607-6.018q0-3.429 1.857-6.375-3.589 1.071-5.866 4.089t-2.277 6.857q0 2.321 0.911 4.438t2.438 3.643 3.643 2.438 4.438 0.911q2.571 0 4.884-1.098t3.938-3.063zM28.446 21.75q-1.679 3.625-5.063 5.795t-7.384 2.17q-2.786 0-5.321-1.089t-4.375-2.929-2.929-4.375-1.089-5.321q0-2.732 1.027-5.223t2.786-4.313 4.205-2.938 5.179-1.223q0.786-0.036 1.089 0.696 0.321 0.732-0.268 1.286-1.536 1.393-2.348 3.241t-0.813 3.902q0 2.643 1.304 4.875t3.536 3.536 4.875 1.304q2.107 0 4.071-0.911 0.732-0.321 1.286 0.232 0.25 0.25 0.313 0.607t-0.080 0.679z"></path>
</symbol>
<symbol id="icon-sun" viewBox="0 0 32 32">
<path d="M16 9c-3.859 0-7 3.141-7 7s3.141 7 7 7 7-3.141 7-7-3.141-7-7-7zM16 21c-2.762 0-5-2.238-5-5s2.238-5 5-5c2.762 0 5 2.238 5 5s-2.238 5-5 5zM16 7c0.552 0 1-0.448 1-1v-2c0-0.552-0.448-1-1-1s-1 0.448-1 1v2c0 0.552 0.448 1 1 1zM16 25c-0.552 0-1 0.448-1 1v2c0 0.552 0.448 1 1 1s1-0.448 1-1v-2c0-0.552-0.448-1-1-1zM23.777 9.635l1.414-1.414c0.391-0.391 0.391-1.023 0-1.414s-1.023-0.391-1.414 0l-1.414 1.414c-0.391 0.391-0.391 1.023 0 1.414s1.023 0.391 1.414 0zM8.223 22.365l-1.414 1.414c-0.391 0.391-0.391 1.023 0 1.414s1.023 0.391 1.414 0l1.414-1.414c0.391-0.392 0.391-1.023 0-1.414s-1.023-0.392-1.414 0zM7 16c0-0.552-0.448-1-1-1h-2c-0.552 0-1 0.448-1 1s0.448 1 1 1h2c0.552 0 1-0.448 1-1zM28 15h-2c-0.552 0-1 0.448-1 1s0.448 1 1 1h2c0.552 0 1-0.448 1-1s-0.448-1-1-1zM8.221 9.635c0.391 0.391 1.024 0.391 1.414 0s0.391-1.023 0-1.414l-1.414-1.414c-0.391-0.391-1.023-0.391-1.414 0s-0.391 1.023 0 1.414l1.414 1.414zM23.779 22.363c-0.392-0.391-1.023-0.391-1.414 0s-0.392 1.023 0 1.414l1.414 1.414c0.391 0.391 1.023 0.391 1.414 0s0.391-1.023 0-1.414l-1.414-1.414z"></path>
</symbol>
<symbol id="icon-heartBcg" viewBox="0 0 32 32">
<path d="M9.334 4c-3.682 0-6.668 2.954-6.668 6.6 0 2.942 1.168 9.926 12.652 16.986 0.194 0.12 0.43 0.191 0.682 0.191s0.488-0.071 0.688-0.194l-0.006 0.003c11.484-7.060 12.652-14.044 12.652-16.986 0-3.646-2.986-6.6-6.668-6.6-3.68 0-6.666 4-6.666 4s-2.986-4-6.666-4z"></path>
</symbol>
<symbol id="icon-heartWithoutBcg" viewBox="0 0 32 32">
<path stroke-linejoin="round" stroke-linecap="round" stroke-miterlimit="4" stroke-width="2" d="M9.334 4c-3.682 0-6.668 2.954-6.668 6.6 0 2.942 1.168 9.926 12.652 16.986 0.194 0.12 0.43 0.191 0.682 0.191s0.488-0.071 0.688-0.194l-0.006 0.003c11.484-7.060 12.652-14.044 12.652-16.986 0-3.646-2.986-6.6-6.668-6.6-3.68 0-6.666 4-6.666 4s-2.986-4-6.666-4z"></path>
</symbol>
<symbol id="icon-arrowToUp" viewBox="0 0 32 32">
<path d="M3.76 25.143l-3.76-3.479 16-14.807 16 14.807-3.76 3.479-12.24-11.303-12.24 11.303z"></path>
</symbol>
<symbol id="icon-arrowToDown" viewBox="0 0 32 32">
<path d="M3.76 9.143l-3.76 3.479 16 14.807 16-14.807-3.76-3.479-12.24 11.303-12.24-11.303z"></path>
</symbol>
<symbol id="icon-arrowToRight" viewBox="0 0 18 32">
<path fill="none" stroke="#f4f4f4" style="stroke: var(--color1, #f4f4f4)" stroke-linejoin="round" stroke-linecap="round" stroke-miterlimit="4" stroke-width="4.5714" d="M2.286 29.714l13.714-13.714-13.714-13.714"></path>
</symbol>
<symbol id="icon-calendar" viewBox="0 0 32 32">
<path d="M22.667 4h5.333c0.736 0 1.333 0.597 1.333 1.333v0 21.334c0 0.736-0.597 1.333-1.333 1.333v0h-24c-0.736 0-1.333-0.597-1.333-1.333v0-21.334c0-0.736 0.597-1.333 1.333-1.333v0h5.333v-2.667h2.667v2.667h8v-2.667h2.667v2.667zM26.667 14.667h-21.334v10.666h21.334v-10.666zM20 6.667h-8v2.666h-2.667v-2.666h-4v5.333h21.334v-5.333h-4v2.666h-2.667v-2.666zM8 17.333h2.667v2.667h-2.667v-2.667zM14.667 17.333h2.666v2.667h-2.666v-2.667zM21.333 17.333h2.667v2.667h-2.667v-2.667z"></path>
</symbol>
<symbol id="icon-search" viewBox="0 0 32 32">
<path d="M13.333 23.6c2.368 0 4.666-0.752 6.53-2.138l5.862 5.568 1.885-1.792-5.862-5.568c1.395-1.669 2.245-3.836 2.253-6.201v-0.002c0-5.587-4.784-10.134-10.667-10.134-5.882 0-10.666 4.547-10.666 10.134s4.784 10.133 10.666 10.133zM13.333 5.867c4.413 0 8 3.408 8 7.6s-3.587 7.6-8 7.6c-4.411 0-8-3.408-8-7.6s3.589-7.6 8-7.6z"></path>
</symbol>
<symbol id="icon-mobile-menu" viewBox="0 0 32 32"><path d="M3.492 6.741c-0.321 0.1-0.495 0.235-0.655 0.507-0.129 0.22-0.144 0.297-0.144 0.752 0 0.457 0.015 0.531 0.148 0.759 0.1 0.166 0.234 0.3 0.395 0.397l0.005 0.003 0.252 0.148h25.021l0.26-0.16c0.329-0.204 0.507-0.529 0.544-1.001 0.037-0.459-0.088-0.885-0.333-1.129-0.376-0.376 0.605-0.349-13.008-0.345-9.711 0.003-12.316 0.017-12.485 0.071zM3.492 14.741c-0.321 0.1-0.495 0.235-0.655 0.507-0.129 0.22-0.144 0.297-0.144 0.752 0 0.457 0.015 0.531 0.148 0.759 0.1 0.166 0.234 0.3 0.395 0.397l0.005 0.003 0.252 0.148h25.021l0.26-0.16c0.329-0.204 0.507-0.529 0.544-1.001 0.037-0.459-0.088-0.885-0.333-1.129-0.376-0.376 0.605-0.349-13.008-0.345-9.711 0.003-12.316 0.017-12.485 0.071zM3.492 22.741c-0.321 0.1-0.495 0.235-0.655 0.507-0.129 0.22-0.144 0.297-0.144 0.752 0 0.457 0.015 0.531 0.148 0.759 0.1 0.166 0.234 0.3 0.395 0.397l0.005 0.003 0.252 0.148h25.021l0.26-0.16c0.329-0.204 0.507-0.529 0.544-1.001 0.037-0.459-0.088-0.885-0.333-1.129-0.376-0.376 0.605-0.349-13.008-0.345-9.711 0.003-12.316 0.017-12.485 0.071z"></path>
</symbol>
<symbol id="icon-close" viewBox="0 0 32 32">
<path d="M7.501 6.727c-0.322 0.196-0.585 0.461-0.772 0.776l-0.006 0.010c-0.069 0.144-0.109 0.312-0.109 0.49 0 0.179 0.041 0.348 0.114 0.5l-0.003-0.007c0.075 0.149 1.313 1.427 3.745 3.864l3.635 3.64-3.635 3.64c-2.432 2.437-3.671 3.715-3.745 3.864-0.235 0.469-0.113 0.977 0.34 1.431s0.961 0.575 1.431 0.34c0.149-0.075 1.427-1.313 3.864-3.745l3.64-3.635 3.64 3.635c2.437 2.432 3.715 3.671 3.864 3.745 0.469 0.235 0.977 0.113 1.431-0.34s0.575-0.961 0.34-1.431c-0.075-0.149-1.313-1.427-3.745-3.864l-3.635-3.64 3.635-3.64c2.432-2.437 3.671-3.715 3.745-3.864 0.235-0.469 0.113-0.977-0.34-1.431s-0.961-0.575-1.431-0.34c-0.149 0.075-1.427 1.313-3.864 3.745l-3.64 3.635-3.64-3.635c-2.437-2.432-3.715-3.671-3.864-3.745-0.145-0.069-0.316-0.109-0.496-0.109-0.181 0-0.353 0.041-0.506 0.114l0.007-0.003z"></path>
</symbol>
<symbol id="icon-frame" viewBox="0 0 32 32">
<path d="M22.666 4h5.333c0.354 0 0.693 0.14 0.943 0.391s0.391 0.589 0.391 0.943v21.333c0 0.354-0.14 0.693-0.391 0.943s-0.589 0.39-0.943 0.39h-24c-0.354 0-0.693-0.14-0.943-0.39s-0.391-0.589-0.391-0.943v-21.333c0-0.354 0.14-0.693 0.391-0.943s0.589-0.391 0.943-0.391h5.333v-2.667h2.667v2.667h8v-2.667h2.667v2.667zM26.666 14.667h-21.333v10.667h21.333v-10.667zM20 6.667h-8v2.667h-2.667v-2.667h-4v5.333h21.333v-5.333h-4v2.667h-2.667v-2.667zM8 17.333h2.667v2.667h-2.667v-2.667zM14.666 17.333h2.667v2.667h-2.667v-2.667zM21.333 17.333h2.667v2.667h-2.667v-2.667z"></path>
</symbol>
<symbol id="icon-vector-up" viewBox="0 0 53 32">
<path d="M6.267 32l-6.267-6.089 26.667-25.911 26.667 25.911-6.267 6.089-20.4-19.779-20.4 19.779z"></path>
</symbol>
<symbol id="icon-arrowbackward" viewBox="0 0 16 32">
<path fill="#4440f6" style="fill: var(--color1, #4440f6)" d="M0 16c0 0.596 0.204 1.107 0.642 1.55l12.192 12.982c0.345 0.375 0.784 0.579 1.301 0.579 1.034 0 1.865-0.886 1.865-2.027 0-0.562-0.219-1.056-0.564-1.448l-10.985-11.636 10.985-11.636c0.345-0.392 0.564-0.903 0.564-1.448 0-1.141-0.831-2.027-1.865-2.027-0.517 0-0.956 0.204-1.301 0.579l-12.192 12.965c-0.439 0.46-0.642 0.971-0.642 1.567z"></path>
</symbol>
<symbol id="icon-arrowforward" viewBox="0 0 16 32">
<path fill="#4440f6" style="fill: var(--color1, #4440f6)" d="M16 16c-0.016-0.596-0.219-1.107-0.643-1.567l-12.192-12.965c-0.36-0.375-0.784-0.579-1.301-0.579-1.050 0-1.865 0.886-1.865 2.027 0 0.545 0.204 1.056 0.564 1.448l10.97 11.636-10.97 11.636c-0.36 0.392-0.564 0.886-0.564 1.448 0 1.142 0.815 2.027 1.865 2.027 0.501 0 0.94-0.204 1.301-0.579l12.192-12.982c0.439-0.443 0.642-0.954 0.642-1.55z"></path>
</symbol>
<symbol id="icon-html5" viewBox="0 0 32 32">
<path d="M1.066 1.067v-1.067c-0.148 0-0.294 0.031-0.429 0.090s-0.256 0.146-0.356 0.255c-0.1 0.109-0.176 0.237-0.224 0.377s-0.066 0.288-0.054 0.435l1.062-0.090zM30.933 1.067l1.062 0.090c0.012-0.147-0.006-0.295-0.054-0.435s-0.124-0.268-0.224-0.377-0.221-0.195-0.356-0.255c-0.135-0.059-0.281-0.090-0.429-0.090v1.067zM28.8 26.667l0.337 1.011c0.198-0.066 0.372-0.189 0.501-0.353s0.207-0.363 0.224-0.571l-1.062-0.087zM15.999 30.933l-0.337 1.011c0.219 0.073 0.455 0.073 0.674 0l-0.337-1.011zM3.2 26.667l-1.062 0.087c0.017 0.208 0.095 0.407 0.224 0.571s0.303 0.287 0.501 0.353l0.337-1.011zM9.6 7.467v-1.067h-1.067v1.067h1.067zM9.6 13.867h-1.067v1.067h1.067v-1.067zM22.4 13.867h1.067v-1.067h-1.067v1.067zM22.4 20.267l0.337 1.011 0.73-0.243v-0.768h-1.067zM15.999 22.4l-0.337 1.011 0.337 0.113 0.337-0.113-0.337-1.011zM9.6 20.267h-1.067v0.768l0.73 0.243 0.337-1.011zM1.066 2.133h29.867v-2.133h-29.867v2.133zM29.87 0.977l-2.133 25.6 2.125 0.177 2.133-25.598-2.125-0.179zM28.462 25.656l-12.8 4.267 0.674 2.022 12.8-4.267-0.674-2.022zM16.337 29.922l-12.8-4.267-0.674 2.022 12.8 4.267 0.674-2.022zM4.262 26.579l-2.133-25.6-2.125 0.177 2.133 25.598 2.125-0.175zM23.466 6.4h-13.867v2.133h13.867v-2.133zM8.533 7.467v6.4h2.133v-6.4h-2.133zM9.6 14.933h12.8v-2.133h-12.8v2.133zM21.333 13.867v6.4h2.133v-6.4h-2.133zM22.062 19.256l-6.4 2.133 0.674 2.022 6.4-2.133-0.674-2.022zM16.337 21.389l-6.4-2.133-0.674 2.022 6.4 2.133 0.674-2.022zM10.666 20.267v-3.2h-2.133v3.2h2.133z"></path>
</symbol>
<symbol id="icon-sass" viewBox="0 0 32 32">
<path d="M15.092 22.146c-0.030 0.054-0.015 0.030 0 0v0zM27.548 17.796c-1.006 0-1.998 0.23-2.9 0.675-0.295-0.595-0.6-1.115-0.65-1.505-0.060-0.455-0.125-0.725-0.055-1.265s0.385-1.305 0.38-1.36-0.070-0.33-0.715-0.335c-0.645-0.005-1.2 0.125-1.265 0.295-0.114 0.311-0.203 0.63-0.265 0.955-0.115 0.585-1.289 2.675-1.954 3.765-0.22-0.425-0.405-0.8-0.445-1.1-0.060-0.455-0.125-0.725-0.055-1.265s0.385-1.305 0.38-1.36-0.070-0.33-0.714-0.335c-0.644-0.005-1.2 0.125-1.265 0.295s-0.135 0.57-0.265 0.955c-0.13 0.385-1.695 3.865-2.104 4.77-0.21 0.46-0.39 0.83-0.52 1.080-0.020 0.040-0.035 0.065-0.045 0.085 0.015-0.025 0.025-0.050 0.025-0.040-0.11 0.215-0.175 0.335-0.175 0.335v0.005c-0.085 0.16-0.18 0.305-0.225 0.305-0.030 0-0.095-0.42 0.015-0.995 0.235-1.21 0.79-3.090 0.785-3.155-0.005-0.035 0.105-0.36-0.365-0.535-0.455-0.165-0.62 0.11-0.66 0.11s-0.070 0.1-0.070 0.1c0 0 0.505-2.12-0.97-2.12-0.92 0-2.2 1.010-2.829 1.925-0.395 0.215-1.25 0.68-2.15 1.175l-1.035 0.57c-0.025-0.025-0.045-0.050-0.070-0.075-1.79-1.91-5.094-3.26-4.954-5.825 0.050-0.935 0.375-3.39 6.354-6.37 4.9-2.44 8.817-1.77 9.492-0.28 0.97 2.125-2.095 6.080-7.183 6.65-1.94 0.215-2.959-0.535-3.214-0.815-0.265-0.295-0.305-0.31-0.405-0.255-0.165 0.090-0.060 0.35 0 0.505 0.15 0.395 0.775 1.095 1.84 1.445 0.935 0.305 3.209 0.475 5.958-0.59 3.089-1.19 5.494-4.505 4.788-7.28-0.718-2.82-5.394-3.745-9.815-2.175-2.635 0.935-5.484 2.405-7.533 4.32-2.435 2.28-2.824 4.265-2.664 5.095 0.57 2.945 4.629 4.865 6.253 6.285l-0.225 0.125c-0.815 0.405-3.909 2.025-4.684 3.735-0.875 1.94 0.145 3.33 0.814 3.52 2.090 0.58 4.229-0.465 5.379-2.18s1.010-3.955 0.48-4.975c-0.005-0.015-0.015-0.025-0.020-0.040 0.6-0.355 1.205-0.702 1.815-1.040-0.2 0.54-0.345 1.19-0.42 2.13-0.090 1.1 0.365 2.525 0.955 3.085 0.26 0.245 0.574 0.25 0.77 0.25 0.69 0 1-0.57 1.345-1.25 0.425-0.83 0.8-1.795 0.8-1.795s-0.47 2.61 0.815 2.61c0.47 0 0.94-0.605 1.15-0.915v0.005c0 0 0.010-0.020 0.035-0.060 0.050-0.075 0.075-0.12 0.075-0.12v-0.015c0.19-0.325 0.605-1.070 1.23-2.3 0.81-1.59 1.584-3.575 1.584-3.575 0.075 0.436 0.179 0.867 0.31 1.29 0.14 0.475 0.435 0.995 0.67 1.5-0.19 0.26-0.305 0.41-0.305 0.41 0 0.004 0.002 0.007 0.005 0.010-0.15 0.2-0.32 0.415-0.495 0.625-0.639 0.76-1.4 1.63-1.5 1.88-0.12 0.295-0.090 0.515 0.14 0.685 0.17 0.13 0.47 0.15 0.785 0.125 0.575-0.040 0.98-0.18 1.175-0.27 0.36-0.129 0.7-0.307 1.010-0.53 0.625-0.46 1.005-1.12 0.97-1.99-0.020-0.48-0.175-0.96-0.365-1.41 0.055-0.080 0.115-0.165 0.17-0.25 0.651-0.971 1.237-1.983 1.755-3.031 0.075 0.436 0.178 0.867 0.31 1.29 0.12 0.405 0.355 0.85 0.57 1.285-0.93 0.755-1.505 1.63-1.704 2.205-0.37 1.065-0.080 1.545 0.465 1.655 0.245 0.050 0.595-0.065 0.855-0.175 0.386-0.129 0.75-0.316 1.079-0.555 0.625-0.46 1.23-1.105 1.189-1.98-0.015-0.395-0.125-0.79-0.27-1.17 0.785-0.33 1.805-0.51 3.105-0.36 2.784 0.325 3.329 2.065 3.224 2.79s-0.69 1.13-0.885 1.25c-0.195 0.12-0.255 0.165-0.24 0.255 0.025 0.13 0.115 0.125 0.28 0.095 0.23-0.040 1.46-0.59 1.515-1.935 0.080-1.7-1.555-3.57-4.45-3.555l-0.002 0.001zM6.089 25.031c-0.92 1.005-2.209 1.385-2.764 1.065-0.595-0.346-0.36-1.825 0.774-2.896 0.69-0.65 1.58-1.25 2.17-1.62 0.135-0.080 0.33-0.2 0.57-0.345 0.019-0.012 0.040-0.024 0.060-0.035 0.045-0.030 0.095-0.055 0.145-0.085 0.414 1.52 0.015 2.861-0.955 3.916zM12.807 20.461c-0.32 0.785-0.994 2.785-1.405 2.68-0.35-0.090-0.565-1.615-0.070-3.115 0.25-0.755 0.78-1.655 1.095-2.005 0.505-0.565 1.060-0.745 1.19-0.52 0.175 0.295-0.61 2.47-0.81 2.96zM18.357 23.111c-0.135 0.070-0.26 0.115-0.32 0.080-0.045-0.025 0.055-0.12 0.055-0.12s0.695-0.745 0.97-1.085c0.16-0.2 0.345-0.435 0.545-0.695 0 0.025 0.005 0.050 0.005 0.080-0.006 0.895-0.865 1.5-1.255 1.74zM22.637 22.136c-0.1-0.070-0.085-0.305 0.25-1.035 0.13-0.285 0.43-0.765 0.95-1.225 0.059 0.174 0.091 0.356 0.095 0.54-0.005 1.125-0.81 1.545-1.295 1.72z"></path>
</symbol>
<symbol id="icon-js" viewBox="0 0 32 32">
<path d="M5 5v22h22v-22h-22zM7 7h18v18h-18v-18zM20.244 15c-1.425 0-2.346 0.912-2.346 2.12 0 1.31 0.77 1.937 1.928 2.43l0.4 0.173c0.733 0.323 1.169 0.511 1.169 1.062 0 0.465-0.427 0.799-1.092 0.799-0.788 0-1.236-0.418-1.578-0.979l-1.31 0.75c0.464 0.931 1.433 1.645 2.925 1.645 1.52 0 2.66-0.788 2.66-2.232 0-1.35-0.77-1.949-2.139-2.528l-0.398-0.172c-0.693-0.304-0.988-0.503-0.988-0.978 0-0.39 0.294-0.694 0.77-0.694 0.465 0 0.758 0.2 1.034 0.694l1.256-0.807c-0.532-0.93-1.265-1.283-2.29-1.283h-0.001zM14.394 15.096v5.463c0 0.798-0.342 1.005-0.865 1.005-0.55 0-0.788-0.379-1.035-0.826l-1.31 0.79c0.38 0.807 1.129 1.472 2.412 1.472 1.424 0 2.404-0.76 2.404-2.424v-5.48h-1.606z"></path>
</symbol>
<symbol id="icon-axios" viewBox="0 0 32 32">
<path d="M14.757 3.867v25.863l-2.819 2.271v-21.515h-5.305l8.124-6.619zM19.911 0v21.023h5.455l-8.267 6.785v-25.849l2.812-1.959z"></path>
</symbol>
<symbol id="icon-parcel" viewBox="0 0 156 32">
<path d="M98.477 0c3.68 0 6.221 2.541 6.221 6.221v5.082h-6.309v-3.855c0-0.964-0.525-1.489-1.489-1.489h-6.833c-0.964 0-1.49 0.526-1.49 1.489v16.997c0 0.964 0.526 1.489 1.49 1.489h6.834c0.964 0 1.489-0.525 1.489-1.489v-3.855h6.309v5.082c0 3.68-2.541 6.221-6.221 6.221h-9.988c-3.68 0-6.221-2.541-6.221-6.221v-19.451c-0-3.68 2.541-6.221 6.221-6.221h9.988zM16.121 0.175c3.68 0 6.221 2.541 6.221 6.221v7.973c0 3.68-2.541 6.221-6.221 6.221h-9.812v11.127h-6.309v-31.541l16.121-0zM40.215 0.175l10.163 31.541h-6.79l-2.059-7.097h-10.207l-2.103 7.097h-6.527l10.163-31.541h7.36zM70.616 0.175c3.68 0 6.22 2.541 6.22 6.221v7.404c0 2.979-1.664 5.213-4.293 5.958l5.257 11.959h-6.79l-5.082-11.697h-5.082v11.697h-6.308v-31.542h16.077zM130.937 0.175v5.958h-14.325v6.484h11.609v5.958h-11.609v7.184h14.325v5.958h-20.633v-31.541h20.633zM142.808 0.175v25.583h13.23v5.958h-19.538v-31.541h6.308zM97.688 2.541h-8.411c-2.716 0-4.293 1.577-4.293 4.293v18.224c0 2.716 1.577 4.293 4.293 4.293h8.411c2.716 0 4.293-1.577 4.293-4.293v-1.928h-0.876v1.928c0 2.19-1.227 3.417-3.417 3.417h-8.412c-2.19 0-3.417-1.227-3.417-3.417v-18.224c0-2.19 1.227-3.417 3.417-3.417h8.411c2.19 0 3.417 1.227 3.417 3.417v2.015h0.876v-2.015c0-2.716-1.577-4.293-4.293-4.293h0zM15.333 2.716h-12.616v26.459h0.876v-11.127h11.74c2.716 0 4.293-1.577 4.293-4.293v-6.746c0-2.716-1.577-4.293-4.293-4.293v-0zM38.55 2.716h-4.030l-8.236 26.459h0.832l2.19-7.097h14.369l2.146 7.097h0.832l-8.104-26.46zM69.828 2.716h-12.573v26.459h0.876v-11.652h9.637l5.082 11.653h0.92l-5.082-11.653h1.139c2.716 0 4.293-1.577 4.293-4.293v-6.221c0-2.716-1.577-4.293-4.293-4.293l0-0zM128.221 2.716h-15.201v26.459h15.201v-0.876h-14.325v-12.266h11.609v-0.876h-11.609v-11.565h14.325v-0.876zM140.093 2.716h-0.876v26.459h14.106v-0.876h-13.23v-25.584zM38.025 3.592l5.388 17.611h-13.843l5.476-17.611h2.979zM36.491 7.097l-3.417 11.565h6.746l-3.329-11.565zM15.333 3.592c2.19 0 3.417 1.227 3.417 3.417v6.746c0 2.19-1.227 3.417-3.417 3.417h-11.741v-13.58h11.741zM69.828 3.592c2.19 0 3.417 1.227 3.417 3.417v6.221c0 2.19-1.227 3.417-3.417 3.417h-11.696v-13.054h11.696zM14.544 6.133h-8.236v8.499h8.236c0.964 0 1.489-0.526 1.489-1.489v-5.52c0-0.964-0.526-1.489-1.489-1.489v0zM69.039 6.133h-8.192v8.017h8.192c0.964 0 1.49-0.526 1.49-1.489v-5.038c0-0.964-0.526-1.49-1.49-1.49z"></path>
</symbol>
</defs>
</svg>
