<svg aria-hidden="true" style="position: absolute; width: 0; height: 0; overflow: hidden;" version="1.1" xmlns="http://www.w3.org/2000/svg" xmlns:xlink="http://www.w3.org/1999/xlink">
<defs>
<symbol id="icon-book" viewBox="0 0 32 32">
<path stroke-linejoin="round" stroke-linecap="round" stroke-miterlimit="4" stroke-width="1.7778" d="M2.667 4h8c2.946 0 5.333 2.388 5.333 5.333v0 18.667c0-2.209-1.791-4-4-4v0h-9.333v-20zM29.333 4h-8c-2.946 0-5.333 2.388-5.333 5.333v0 18.667c0-2.209 1.791-4 4-4v0h9.333v-20z"></path>
</symbol>
<symbol id="icon-home" viewBox="0 0 32 32">
<path stroke-linejoin="round" stroke-linecap="round" stroke-miterlimit="4" stroke-width="1.7778" d="M4 12l12-9.333 12 9.333v14.667c0 1.473-1.194 2.667-2.667 2.667v0h-18.667c-1.473 0-2.667-1.194-2.667-2.667v0-14.667z"></path>
<path stroke-linejoin="round" stroke-linecap="round" stroke-miterlimit="4" stroke-width="1.7778" d="M12 29.333v-13.333h8v13.333"></path>
</symbol>
<symbol id="icon-heartBiggest" viewBox="0 0 32 32">
<path stroke-linejoin="round" stroke-linecap="round" stroke-miterlimit="4" stroke-width="1.7778" d="M27.787 6.146c-1.327-1.328-3.161-2.149-5.187-2.149s-3.859 0.821-5.187 2.149l-1.413 1.413-1.413-1.413c-1.325-1.315-3.151-2.128-5.166-2.128-4.051 0-7.335 3.284-7.335 7.335 0 2.015 0.813 3.841 2.128 5.167l11.786 11.786 11.787-11.787c1.328-1.327 2.149-3.161 2.149-5.187s-0.821-3.859-2.149-5.187l-0-0z"></path>
</symbol>
<symbol id="icon-moon" viewBox="0 0 32 32">
<path stroke-linejoin="round" stroke-linecap="round" stroke-miterlimit="4" stroke-width="2.2857" d="M28 17.053c-0.584 6.134-5.71 10.893-11.947 10.893-6.627 0-11.998-5.372-11.998-11.998 0-6.237 4.759-11.363 10.845-11.944l0.048-0.004c-1.141 1.53-1.827 3.458-1.827 5.546 0 5.155 4.179 9.333 9.333 9.333 2.088 0 4.016-0.686 5.571-1.844l-0.025 0.018z"></path>
</symbol>
<symbol id="icon-sun" viewBox="0 0 32 32">
<path stroke-linejoin="round" stroke-linecap="round" stroke-miterlimit="4" stroke-width="2.2857" d="M16 1.778v2.586M16 27.636v2.586M5.943 5.943l1.836 1.836M24.224 24.224l1.836 1.836M1.778 16h2.586M27.636 16h2.586M5.943 26.059l1.836-1.836M24.222 7.778l1.836-1.836M22.466 16c0 3.57-2.894 6.465-6.465 6.465s-6.465-2.894-6.465-6.465v0c0-3.57 2.894-6.465 6.465-6.465s6.465 2.894 6.465 6.465v0z"></path>
</symbol>
<symbol id="icon-heartBcg" viewBox="0 0 32 32">
<path d="M9.334 4c-3.682 0-6.668 2.954-6.668 6.6 0 2.942 1.168 9.926 12.652 16.986 0.194 0.12 0.43 0.191 0.682 0.191s0.488-0.071 0.688-0.194l-0.006 0.003c11.484-7.060 12.652-14.044 12.652-16.986 0-3.646-2.986-6.6-6.668-6.6-3.68 0-6.666 4-6.666 4s-2.986-4-6.666-4z"></path>
</symbol>
<symbol id="icon-heartWithoutBcg" viewBox="0 0 32 32">
<path stroke-linejoin="round" stroke-linecap="round" stroke-miterlimit="4" stroke-width="2" d="M9.334 4c-3.682 0-6.668 2.954-6.668 6.6 0 2.942 1.168 9.926 12.652 16.986 0.194 0.12 0.43 0.191 0.682 0.191s0.488-0.071 0.688-0.194l-0.006 0.003c11.484-7.060 12.652-14.044 12.652-16.986 0-3.646-2.986-6.6-6.668-6.6-3.68 0-6.666 4-6.666 4s-2.986-4-6.666-4z"></path>
</symbol>
<symbol id="icon-arrowToUp" viewBox="0 0 32 32">
<path d="M3.76 25.143l-3.76-3.479 16-14.807 16 14.807-3.76 3.479-12.24-11.303-12.24 11.303z"></path>
</symbol>
<symbol id="icon-arrowToDown" viewBox="0 0 32 32">
<path d="M3.76 9.143l-3.76 3.479 16 14.807 16-14.807-3.76-3.479-12.24 11.303-12.24-11.303z"></path>
</symbol>
<symbol id="icon-calendar" viewBox="0 0 32 32">
<path d="M22.667 4h5.333c0.736 0 1.333 0.597 1.333 1.333v0 21.334c0 0.736-0.597 1.333-1.333 1.333v0h-24c-0.736 0-1.333-0.597-1.333-1.333v0-21.334c0-0.736 0.597-1.333 1.333-1.333v0h5.333v-2.667h2.667v2.667h8v-2.667h2.667v2.667zM26.667 14.667h-21.334v10.666h21.334v-10.666zM20 6.667h-8v2.666h-2.667v-2.666h-4v5.333h21.334v-5.333h-4v2.666h-2.667v-2.666zM8 17.333h2.667v2.667h-2.667v-2.667zM14.667 17.333h2.666v2.667h-2.666v-2.667zM21.333 17.333h2.667v2.667h-2.667v-2.667z"></path>
</symbol>
<symbol id="icon-search" viewBox="0 0 32 32">
<path d="M13.333 23.6c2.368 0 4.666-0.752 6.53-2.138l5.862 5.568 1.885-1.792-5.862-5.568c1.395-1.669 2.245-3.836 2.253-6.201v-0.002c0-5.587-4.784-10.134-10.667-10.134-5.882 0-10.666 4.547-10.666 10.134s4.784 10.133 10.666 10.133zM13.333 5.867c4.413 0 8 3.408 8 7.6s-3.587 7.6-8 7.6c-4.411 0-8-3.408-8-7.6s3.589-7.6 8-7.6z"></path>
</symbol>
</defs>
</svg>
