<svg width="31" height="31" viewBox="0 0 31 31" fill="none" xmlns="http://www.w3.org/2000/svg">
<path d="M21.0782 11.6093C21.3753 11.5126 21.672 11.4776 21.9683 11.5044C22.2646 11.5312 22.5408 11.6098 22.7968 11.7401C23.0528 11.8704 23.2788 12.0474 23.4749 12.2711C23.6709 12.4949 23.8173 12.7553 23.914 13.0525L25.3067 17.3316C25.5944 18.2156 25.6981 19.102 25.6176 19.9909C25.5372 20.8797 25.2978 21.7094 24.8995 22.4798C24.5012 23.2503 23.9702 23.9284 23.3064 24.5142C22.6426 25.0999 21.8661 25.5416 20.9771 25.8392C19.9073 26.1873 18.8453 26.307 17.7912 26.1982C16.737 26.0895 15.7089 25.7832 14.707 25.2795L7.73548 21.7316C7.45977 21.5913 7.22147 21.4019 7.02057 21.1633C6.81968 20.9246 6.67209 20.6605 6.57779 20.3708C6.47624 20.0587 6.44138 19.7497 6.4732 19.4435C6.50502 19.1374 6.58737 18.8477 6.72026 18.5744C6.85314 18.3011 7.03638 18.0689 7.26997 17.8779C7.50356 17.6869 7.77395 17.5331 8.08113 17.4167C8.6903 17.2185 9.28537 17.2672 9.86633 17.5628L11.4431 18.356L10.2245 14.6118C9.71852 14.5464 9.24016 14.4145 8.78945 14.2162C8.33874 14.0178 7.92674 13.7616 7.55344 13.4477C7.18014 13.1337 6.84917 12.7731 6.56054 12.3659C6.2719 11.9587 6.05271 11.5124 5.90299 11.0271C5.67813 10.3362 5.59778 9.6476 5.66195 8.96123C5.72612 8.27486 5.90984 7.62764 6.2131 7.01956C6.51636 6.41147 6.92776 5.88322 7.4473 5.43479C7.96684 4.98636 8.57456 4.6448 9.27046 4.41009C9.96136 4.18524 10.65 4.10489 11.3364 4.16906C12.0227 4.23323 12.6699 4.41695 13.278 4.72021C13.8861 5.02347 14.4144 5.43487 14.8628 5.95441C15.3112 6.47395 15.6528 7.08167 15.8875 7.77757C16.1124 8.46846 16.1901 9.17437 16.1207 9.89529C16.0514 10.6162 15.8415 11.2966 15.4911 11.9365C15.7728 11.9187 16.0431 11.954 16.3019 12.0423C16.5607 12.1306 16.8056 12.2645 17.0365 12.444C17.3104 12.1495 17.6293 11.943 17.9933 11.8245C18.3648 11.7036 18.738 11.6766 19.1131 11.7435C19.4881 11.8104 19.8242 11.9722 20.1214 12.2288C20.3952 11.9342 20.7141 11.7277 21.0782 11.6093ZM7.32934 10.5629C7.51068 11.1201 7.80985 11.6101 8.22684 12.0331C8.64384 12.4561 9.12961 12.7622 9.68415 12.9514L8.7557 10.0987C8.65899 9.80152 8.62404 9.5048 8.65085 9.20852C8.67766 8.91224 8.75621 8.63609 8.8865 8.38008C9.01679 8.12406 9.19381 7.89802 9.41755 7.70197C9.6413 7.50591 9.90175 7.35952 10.1989 7.26281C10.4961 7.1661 10.7928 7.13115 11.0891 7.15796C11.3853 7.18477 11.6615 7.26332 11.9175 7.39361C12.1735 7.5239 12.3996 7.70091 12.5956 7.92466C12.7917 8.14841 12.9381 8.40886 13.0348 8.70602L13.9632 11.5587C14.3002 11.0794 14.5127 10.546 14.6009 9.95861C14.6891 9.37124 14.6425 8.79896 14.4611 8.24179C14.3016 7.75148 14.0588 7.32111 13.7328 6.95068C13.4069 6.58024 13.0285 6.2885 12.5976 6.07544C12.1668 5.86237 11.7045 5.72938 11.2108 5.67647C10.717 5.62355 10.225 5.67688 9.73469 5.83645C9.24437 5.99603 8.814 6.23879 8.44357 6.56475C8.07314 6.89071 7.77767 7.27032 7.55718 7.70357C7.33669 8.13683 7.2037 8.59912 7.15821 9.09045C7.11272 9.58177 7.16977 10.0726 7.32934 10.5629ZM22.4877 13.5167C22.4248 13.3235 22.2998 13.1794 22.1127 13.0842C21.9257 12.9889 21.7355 12.9728 21.5424 13.0356C21.2898 13.1178 21.1382 13.2452 21.0876 13.4178C21.0369 13.5904 21.0343 13.7843 21.0797 13.9996C21.1251 14.2148 21.1964 14.4464 21.2934 14.6941C21.3905 14.9418 21.4642 15.1684 21.5147 15.3738C21.5651 15.5793 21.5637 15.7769 21.5104 15.9668C21.4572 16.1566 21.3019 16.2852 21.0445 16.3526C20.7696 16.442 20.5561 16.417 20.4039 16.2776C20.2517 16.1382 20.1197 15.9346 20.008 15.667C19.8962 15.3994 19.8106 15.111 19.751 14.8017C19.6914 14.4925 19.6058 14.2041 19.494 13.9364C19.3823 13.6688 19.2553 13.4678 19.1129 13.3334C18.9706 13.199 18.7521 13.1715 18.4576 13.2509C18.205 13.3331 18.0534 13.4605 18.0027 13.6331C17.9521 13.8057 17.9495 13.9996 17.9949 14.2148C18.0403 14.4301 18.1115 14.6616 18.2086 14.9094C18.3057 15.1571 18.3794 15.3837 18.4298 15.5891C18.4803 15.7945 18.4789 15.9922 18.4256 16.182C18.3724 16.3719 18.2171 16.5005 17.9596 16.5678C17.6848 16.6573 17.4712 16.6323 17.3191 16.4929C17.1669 16.3534 17.0349 16.1499 16.9232 15.8823C16.8114 15.6147 16.7258 15.3262 16.6662 15.017C16.6066 14.7077 16.521 14.4193 16.4092 14.1517C16.2975 13.8841 16.1704 13.6831 16.0281 13.5486C15.8857 13.4142 15.6673 13.3867 15.3727 13.4662C15.1201 13.5484 14.9685 13.6758 14.9179 13.8483C14.8673 14.0209 14.8646 14.2148 14.9101 14.4301C14.9555 14.6454 15.0267 14.8769 15.1238 15.1246C15.2208 15.3724 15.2946 15.599 15.345 15.8044C15.3954 16.0098 15.394 16.2074 15.3408 16.3973C15.2876 16.5871 15.1322 16.7157 14.8748 16.7831C14.6817 16.846 14.4915 16.8298 14.3045 16.7346C14.1174 16.6394 13.9924 16.4952 13.9295 16.302L11.6084 9.17024C11.5456 8.97708 11.4206 8.8329 11.2335 8.73769C11.0464 8.64248 10.8563 8.6263 10.6631 8.68917C10.47 8.75203 10.3258 8.87701 10.2306 9.0641C10.1354 9.25118 10.1192 9.44131 10.1821 9.63446L13.0363 18.4043C13.0919 18.5752 13.113 18.7409 13.0995 18.9014C13.086 19.0619 13.0429 19.2197 12.9701 19.3748C12.8974 19.5299 12.7952 19.6577 12.6635 19.758C12.5319 19.8584 12.3867 19.9426 12.2281 20.0107C12.0647 20.0638 11.899 20.0849 11.7311 20.0738C11.5632 20.0628 11.3967 20.0183 11.2317 19.9406L9.17868 18.8958C8.9719 18.7905 8.76079 18.773 8.54535 18.8431C8.32991 18.9132 8.16958 19.0516 8.06434 19.2584C7.95911 19.4652 7.93904 19.6812 8.00415 19.9065C8.07427 20.122 8.21272 20.2823 8.4195 20.3875L15.3946 23.9466C16.2218 24.3675 17.06 24.6205 17.9093 24.7056C18.7585 24.7907 19.6264 24.6931 20.5129 24.4128C21.2038 24.1879 21.8078 23.8476 22.3249 23.3917C22.842 22.9359 23.2534 22.4076 23.5591 21.807C23.8648 21.2063 24.0497 20.5628 24.1139 19.8764C24.178 19.1901 24.1002 18.4965 23.8803 17.7958L22.4877 13.5167Z" fill="black"/>
</svg>
