<svg width="31" height="31" aria-hidden="true" viewBox="0 0 29 32" style="position: absolute; width: 0; height: 0; overflow: hidden;" version="1.1" xmlns="http://www.w3.org/2000/svg" xmlns:xlink="http://www.w3.org/1999/xlink">
<path fill="#fff" d="M22.369 10.588c0.413-0.135 0.826-0.184 1.238-0.147 0.413 0.038 0.797 0.147 1.153 0.328 0.734 0.382 1.289 1.025 1.548 1.803l0.006 0.022 1.938 5.955c0.296 0.868 0.466 1.867 0.466 2.906 0 1.555-0.382 3.020-1.057 4.307l0.024-0.051c-0.579 1.105-1.321 2.042-2.207 2.821l-0.011 0.009c-0.909 0.799-1.988 1.428-3.175 1.824l-0.066 0.019c-1.010 0.35-2.175 0.552-3.386 0.552-0.369 0-0.733-0.019-1.091-0.055l0.045 0.004c-1.593-0.175-3.045-0.629-4.359-1.312l0.068 0.032-9.7-4.935c-0.76-0.398-1.335-1.064-1.604-1.869l-0.007-0.023c-0.102-0.293-0.16-0.631-0.16-0.983 0-0.109 0.006-0.216 0.017-0.322l-0.001 0.013c0.045-0.427 0.159-0.829 0.344-1.21 0.185-0.38 0.44-0.703 0.765-0.968s0.701-0.48 1.128-0.641c0.3-0.105 0.647-0.166 1.007-0.166 0.54 0 1.049 0.137 1.493 0.377l-0.017-0.008 2.194 1.103-1.695-5.209c-0.743-0.096-1.417-0.289-2.044-0.569l0.046 0.018c-0.658-0.292-1.224-0.65-1.73-1.077l0.011 0.009c-0.521-0.441-0.976-0.936-1.364-1.481l-0.017-0.025c-0.383-0.534-0.695-1.153-0.903-1.817l-0.012-0.046c-0.231-0.668-0.364-1.438-0.364-2.24 0-0.223 0.010-0.445 0.031-0.663l-0.002 0.028c0.093-0.999 0.366-1.915 0.786-2.744l-0.020 0.043c0.437-0.866 1.013-1.599 1.708-2.198l0.009-0.008c0.714-0.613 1.559-1.1 2.483-1.411l0.053-0.015c0.667-0.23 1.436-0.363 2.236-0.363 0.225 0 0.447 0.010 0.666 0.031l-0.028-0.002c0.999 0.092 1.916 0.365 2.745 0.785l-0.043-0.020c0.866 0.437 1.599 1.013 2.198 1.708l0.008 0.009c0.623 0.723 1.099 1.569 1.425 2.538 0.226 0.674 0.357 1.45 0.357 2.257 0 1.295-0.337 2.511-0.927 3.566l0.019-0.037c0.059-0.004 0.129-0.007 0.199-0.007 0.332 0 0.651 0.056 0.949 0.159l-0.020-0.006c0.362 0.124 0.703 0.31 1.024 0.559 0.58-0.63 1.41-1.024 2.331-1.024 0.198 0 0.391 0.018 0.578 0.053l-0.019-0.003c0.52 0.092 0.988 0.317 1.401 0.675 0.381-0.41 0.825-0.697 1.331-0.863zM3.242 9.13c0.265 0.802 0.693 1.487 1.25 2.045l-0-0c0.552 0.564 1.231 1.002 1.991 1.266l0.036 0.011-1.293-3.965c-0.099-0.292-0.156-0.628-0.156-0.977 0-0.516 0.124-1.003 0.345-1.432l-0.008 0.018c0.532-1.023 1.583-1.709 2.795-1.709 0.942 0 1.788 0.415 2.363 1.073l0.003 0.004c0.273 0.31 0.476 0.673 0.611 1.087l1.291 3.969c0.448-0.628 0.762-1.381 0.884-2.198l0.004-0.028c0.039-0.237 0.061-0.51 0.061-0.788 0-0.572-0.093-1.123-0.266-1.638l0.011 0.036c-0.435-1.33-1.364-2.395-2.564-3l-0.029-0.013c-0.561-0.283-1.214-0.481-1.903-0.554l-0.025-0.002c-0.687-0.072-1.372 0-2.054 0.223s-1.281 0.561-1.796 1.014c-0.996 0.873-1.659 2.104-1.788 3.491l-0.002 0.021c-0.063 0.685 0.017 1.368 0.238 2.049zM24.333 13.24c-0.086-0.267-0.273-0.481-0.516-0.6l-0.006-0.003c-0.137-0.075-0.3-0.119-0.474-0.119-0.114 0-0.224 0.019-0.326 0.054l0.007-0.002c-0.352 0.114-0.563 0.292-0.633 0.531-0.071 0.239-0.075 0.509-0.011 0.81 0.063 0.299 0.161 0.621 0.296 0.966 0.136 0.345 0.238 0.659 0.309 0.946 0.070 0.285 0.068 0.561-0.007 0.825-0.074 0.264-0.289 0.442-0.648 0.537-0.381 0.124-0.679 0.089-0.89-0.104-0.211-0.195-0.395-0.477-0.551-0.85-0.147-0.343-0.27-0.746-0.351-1.165l-0.006-0.039c-0.087-0.457-0.211-0.861-0.373-1.245l0.015 0.040c-0.156-0.371-0.333-0.651-0.53-0.839-0.198-0.186-0.501-0.225-0.911-0.114-0.352 0.114-0.563 0.292-0.633 0.531-0.070 0.241-0.074 0.511-0.011 0.81s0.163 0.622 0.298 0.966c0.135 0.345 0.237 0.661 0.306 0.946 0.071 0.285 0.070 0.561-0.004 0.825-0.075 0.264-0.291 0.444-0.648 0.537-0.383 0.125-0.68 0.089-0.89-0.104-0.213-0.195-0.397-0.477-0.552-0.849-0.147-0.344-0.27-0.747-0.351-1.166l-0.006-0.038c-0.087-0.457-0.211-0.86-0.373-1.244l0.015 0.040c-0.156-0.373-0.333-0.653-0.529-0.839-0.199-0.188-0.504-0.225-0.913-0.115-0.352 0.114-0.562 0.292-0.633 0.531-0.070 0.241-0.074 0.511-0.011 0.81s0.163 0.622 0.298 0.967c0.135 0.344 0.237 0.659 0.307 0.946 0.070 0.285 0.068 0.559-0.006 0.824s-0.291 0.444-0.648 0.537c-0.095 0.033-0.205 0.052-0.319 0.052-0.173 0-0.337-0.044-0.479-0.122l0.005 0.003c-0.248-0.121-0.436-0.335-0.52-0.595l-0.002-0.007-3.232-9.921c-0.086-0.267-0.274-0.48-0.516-0.598l-0.006-0.003c-0.137-0.075-0.301-0.12-0.475-0.12-0.114 0-0.223 0.019-0.325 0.054l0.007-0.002c-0.267 0.086-0.48 0.274-0.598 0.516l-0.003 0.006c-0.075 0.137-0.12 0.301-0.12 0.475 0 0.114 0.019 0.223 0.054 0.325l-0.002-0.007 3.971 12.202c0.060 0.169 0.094 0.363 0.094 0.565 0 0.286-0.069 0.556-0.19 0.794l0.005-0.010c-0.1 0.215-0.244 0.394-0.422 0.532l-0.003 0.002c-0.184 0.139-0.385 0.257-0.607 0.352-0.171 0.059-0.369 0.093-0.574 0.093-0.296 0-0.575-0.070-0.822-0.195l0.010 0.005-2.856-1.454c-0.152-0.083-0.333-0.132-0.526-0.132-0.127 0-0.25 0.021-0.364 0.061l0.008-0.002c-0.296 0.095-0.533 0.303-0.665 0.571l-0.003 0.007c-0.086 0.16-0.136 0.351-0.136 0.553 0 0.125 0.019 0.245 0.055 0.359l-0.002-0.008c0.095 0.296 0.303 0.533 0.571 0.665l0.007 0.003 9.704 4.953c1.151 0.584 2.317 0.938 3.498 1.056 1.183 0.118 2.389-0.018 3.623-0.408 0.974-0.315 1.815-0.8 2.529-1.427l-0.008 0.007c1.385-1.217 2.308-2.932 2.487-4.863l0.002-0.029c0.018-0.193 0.029-0.418 0.029-0.645 0-0.804-0.13-1.577-0.369-2.3l0.015 0.052-1.937-5.955z"></path>
</svg>
